<?xml version="1.0" encoding="utf-8"?>

<!DOCTYPE svg PUBLIC "-//W3C//DTD SVG 1.1//EN" "http://www.w3.org/Graphics/SVG/1.1/DTD/svg11.dtd">
<svg version="1.1" id="Layer_1" xmlns="http://www.w3.org/2000/svg" xmlns:xlink="http://www.w3.org/1999/xlink" x="0px" y="0px"
	 width="35px" height="20px" viewBox="0 0 35 20" enable-background="new 0 0 35 20" xml:space="preserve">
<g>
	<g>
		<path fill="#023894" d="M11.871,11.961c-0.038-0.023-0.662-0.586-0.817-0.785c-0.151-0.201-0.443-0.254-0.597-0.334
			c-0.154-0.08-1.171-0.414-1.415-0.238c-0.241,0.174-0.573,0.277-0.702,0c-0.126-0.283-0.189-0.322-0.368-0.361
			C7.793,10.201,7.883,9.988,7.87,9.801C7.856,9.613,7.754,9.415,7.627,9.547C7.5,9.683,7.066,10.029,7.003,9.853
			C6.94,9.681,6.632,8.96,7.092,8.827c0.458-0.134,0.84-0.054,0.956,0.065c0.114,0.12,0.203,0.455,0.345,0.414
			c0.141-0.039,0.063-0.295,0.113-0.507c0.051-0.212,0.384-0.493,0.535-0.787C9.194,7.717,9.219,7.544,9.41,7.463
			c0.194-0.079,0.294-0.187,0.473-0.319c0.18-0.135,0.458-0.254,0.563-0.321c0.102-0.068,0.56-0.294,0.711-0.255
			c0.153,0.041,0.254-0.012,0.127-0.239s-0.293-0.909-0.535-1.216s-0.269-0.387-0.383-0.68c-0.114-0.296-0.243-0.549-0.332-0.348
			c-0.089,0.2-0.28,0.467-0.382,0.213s-0.089-0.24-0.216-0.361c-0.127-0.119-0.23-0.146-0.407-0.199
			C8.85,3.683,8.672,3.75,8.685,3.924c0.012,0.175-0.168,0.483-0.052,0.71C8.749,4.861,8.85,5.101,8.697,5.181
			c-0.151,0.08,0,0.563-0.151,0.547c-0.152-0.012-0.229,0.016-0.229-0.16c0-0.172,0.076-0.44-0.206-0.44
			c-0.279,0-0.446-0.146-0.649-0.294c-0.205-0.146-0.37-0.066-0.318-0.4c0.051-0.334-0.024-0.455,0.203-0.642
			c0.23-0.187,0.282-0.294,0.447-0.213c0.166,0.08,0.279,0.08,0.384-0.013c0.102-0.094,0.291-0.055,0.291-0.174
			c0-0.121-0.216-0.121-0.189-0.319C8.302,2.87,8.407,2.978,8.444,2.644c0.038-0.333-0.242-0.84-0.522-0.774
			C7.64,1.937,7.209,2.326,7.12,2.149C7.03,1.978,6.852,2.057,6.508,2.176c-0.347,0.12-1.772-0.121-1.875-0.242
			c0,0-0.244-0.173-0.371-0.079c-0.126,0.093-0.636,0.053-0.79,0.028C3.319,1.855,3.178,2.056,2.989,1.99
			c-0.193-0.067-0.867-0.201-1.02-0.308C1.815,1.575,1.585,1.575,1.486,1.522C1.383,1.468,1.012,1.441,0.938,1.548
			C0.861,1.655,0.581,1.841,0.44,1.976C0.3,2.109,0.136,2.083,0.275,2.363c0.14,0.28-0.357,0.455-0.23,0.761
			C0.171,3.431,0.02,4.258,0.529,4.418C1.039,4.58,1.46,4.672,1.752,4.433c0.295-0.24,0.741-0.24,0.88,0.026
			c0.14,0.267,0.216,0.667,0.674,0.894C3.763,5.582,4.16,6.236,4.134,6.529C4.11,6.823,4.149,7.797,4.617,8.359
			C5.09,8.919,5.574,9.936,5.611,9.693c0.038-0.24,0.038-0.481,0.142-0.308c0.101,0.175,0.369,0.708,0.802,0.802
			c0.436,0.094,0.651,0.121,0.815,0.281c0.165,0.16,0.307,0.254,0.484,0.334s0.61,0.322,0.699,0.48
			c0.091,0.16,0.053,0.375-0.039,0.615c-0.087,0.242-0.189,0.479-0.063,0.709c0.128,0.227,0.396,0.881,0.614,1.025
			c0.217,0.146,0.431,0.389,0.381,0.723c-0.051,0.334-0.293,1.764-0.269,2.084c0.027,0.318-0.291,1.375-0.036,1.803
			c0.254,0.426,0.688,0.561,0.88,0.504c0.189-0.051,0.039-0.064-0.053-0.264c-0.089-0.201-0.076-0.457,0.025-0.645
			c0.103-0.188,0.103-0.295,0.051-0.506c-0.051-0.215-0.024-0.336,0.103-0.494c0.128-0.162,0.664-0.588,0.83-0.773
			c0.164-0.189,1.211-1.473,1.351-1.576c0.14-0.107,0.458-0.361,0.561-0.76c0.104-0.4,0.472-1.189,0.218-1.393
			C12.852,12.139,11.909,11.99,11.871,11.961z"/>
	</g>
	<g>
		<path fill="#023894" d="M14.419,0.692C14.491,0.55,14.668,0.194,14.761,0h-4.036c0.048,0.215,0.223,1.011,0.189,1.333
			c-0.039,0.374,0.077,0.241,0.178,0.388c0.103,0.146,0.077,0.375,0.014,0.547c-0.064,0.174-0.103,0.561,0.104,1.016
			c0.203,0.453,0.444,1.027,0.648,1.055c0.206,0.026,0.153,0.32,0.295,0.213c0.14-0.107,0.164-0.346,0.279-0.693
			c0.114-0.348,0.114-0.602,0.408-0.774c0.294-0.174,1.107-0.734,1.286-0.936c0.18-0.2,0.383-0.28,0.319-0.626
			C14.38,1.174,14.318,0.894,14.419,0.692z"/>
	</g>
	<g>
		<path fill="#023894" d="M32.297,2.806c-0.152-0.106-1.068-0.84-1.466-0.747c-0.395,0.093-1.095-0.215-1.21-0.281
			c-0.114-0.067-1.056-0.356-1.553-0.374c-0.248-0.009-1.287-0.241-1.724-0.427c-0.433-0.188-0.801-1.108-1.629-0.961
			c-0.105,0.02-1.107,0.161-1.362,0.388c-0.255,0.228-0.37,0.493-0.511,0.547c-0.14,0.054-0.548,0.026-0.548,0.227
			c0,0.201,0.142,0.815-0.024,0.695s-0.331-0.401-0.406-0.186C21.788,1.9,21.658,2.02,21.583,1.939c-0.075-0.079-0.46,0-0.51,0.134
			c-0.052,0.134-0.548,0.44-0.766,0.482c-0.216,0.039-0.307,0.146-0.421,0.2c-0.113,0.053-0.98,0.455-1.146,0.309
			c-0.167-0.147-0.217-0.054-0.32-0.027c0,0-0.305-0.055-0.496-0.293c-0.19-0.24-0.229-0.161-0.445-0.387
			c-0.217-0.226-0.269-0.454-0.483-0.36c-0.216,0.092-1.134,1.041-1.491,1.467c-0.354,0.429-0.994,0.868-0.676,1.175
			c0.32,0.307,0.484,0.269,0.524,0.44s0.076,0.36,0.127,0.428s0.355,0.308,0.509-0.013C16.144,5.172,16.168,4.945,16.345,5
			c0.18,0.053,0.217,0.174,0.126,0.414c-0.09,0.24-0.151,0.613-0.458,0.602c-0.306-0.014-0.636-0.201-0.739-0.16
			c-0.103,0.041-0.163,0.133-0.28,0.228c-0.114,0.093-0.472,0.533-0.714,0.601c-0.241,0.066-0.533,0.012-0.369,0.213
			c0.165,0.201,0.407,0.642,0.179,0.627c-0.229-0.013-0.611-0.051-0.637,0.175c-0.025,0.227-0.126,0.36-0.076,0.52
			c0.05,0.161,0.216,0.468,0.419,0.361c0.207-0.106,0.602-0.213,0.702-0.455c0.103-0.241,0.217-0.506,0.471-0.494
			c0.254,0.013,0.867,0.349,0.829,0.468s-0.165,0.4-0.012,0.307c0.151-0.094,0.279-0.2,0.368-0.24
			c0.089-0.041,0.206,0.134,0.242,0.199c0.038,0.068,0.293,0.201,0.345-0.014c0.052-0.214,0.102-0.052,0.254,0.014
			c0.153,0.068,0.611,0.121,0.674,0.174c0.065,0.053,0.205,0.214,0.027,0.427c-0.179,0.213-0.383,0.295-0.676,0.134
			c-0.294-0.16-0.613,0.135-0.941-0.027c-0.333-0.159-0.18-0.385-0.575-0.547c-0.393-0.16-1.286,0.041-1.567,0.121
			c-0.28,0.08-0.293,0.106-0.407,0.239c-0.114,0.134-0.866,1-0.866,1.496c0,0.494,0.279,1.83,1.183,1.695
			c0.906-0.133,1.454-0.053,1.353,0.213c-0.104,0.27-0.05,0.336,0.115,0.641c0.165,0.309,0.549,2.352,0.611,2.684
			c0.064,0.336-0.05,0.762,0.37,0.695c0.422-0.066,0.867-0.174,1.045-0.561c0.18-0.387,0.205-0.826,0.436-1.055
			c0.229-0.229,0.51-0.229,0.534-0.547c0.023-0.32-0.063-1.082,0.089-1.258c0.151-0.174,0.865-0.975,0.94-1.295
			c0.078-0.318,0.179-0.398-0.113-0.398s-0.789-0.041-0.934-0.309c-0.137-0.268-0.471-0.773-0.471-0.895
			c0-0.12,0.206-0.107,0.307,0.146c0.104,0.254,0.458,1.016,0.866,0.854c0.408-0.16,0.979-0.346,0.993-0.6
			C20,10.137,19.81,9.843,19.605,9.857c-0.204,0.014-0.421-0.133-0.421-0.28c0-0.146,0.037-0.093,0.28,0
			c0.242,0.094,0.317,0.253,0.688,0.28c0.369,0.026,0.79,0.387,0.993,0.549c0.202,0.16,0.56,1.254,0.649,1.361
			c0.088,0.107,0.193,0.107,0.281-0.105c0.089-0.215,0.471-0.895,0.688-1.084c0.218-0.188,0.229-0.439,0.355-0.279
			c0.128,0.16,0.676,0.561,0.715,0.801c0.038,0.24-0.025,0.762,0.088,0.602c0.115-0.16,0.205-0.494,0.306-0.348
			c0.104,0.146,0.104,0.375,0.344,0.199c0.244-0.172,0.664-0.238,0.436-0.613c-0.229-0.373-0.076-0.602,0.065-0.613
			c0.14-0.014,1.096-0.188,1.12-0.708c0.024-0.521-0.332-0.802-0.164-1.068c0.164-0.268,0.406-0.507,0.458-0.348
			c0.051,0.161-0.127,0.681,0.101,0.601c0.23-0.08,0.499-0.08,0.499-0.24c0-0.162-0.052-0.563,0.051-0.668
			c0.104-0.106,0.854-0.814,0.942-1.095c0.089-0.28,0.256-0.521,0.115-0.733c-0.143-0.215-0.383-0.147-0.191-0.414
			c0.191-0.269,0.509-0.515,0.752-0.535c0.773-0.067,0.557,0.889,0.567,1.103c0.015,0.214,0.015,0.748,0.129,0.48
			c0.114-0.267,0.247-0.595,0.477-0.822c0.23-0.226,0.357-0.374,0.37-0.574c0.015-0.2,0.024-0.267,0.242-0.374
			c0.218-0.106,1.171-0.48,1.262-0.734c0.088-0.252-0.114-0.481,0.113-0.465c0.229,0.012,0.445,0.266,0.563,0.133
			c0.112-0.133,0.368-0.373,0.355-0.508C32.819,3.219,32.45,2.913,32.297,2.806z"/>
	</g>
	<g>
		<path fill="#023894" d="M28.182,7.291c-0.076,0.175-0.113,0.202-0.229,0.563c-0.116,0.359-0.077,0.267-0.192,0.494
			c-0.114,0.228-0.304,0.252-0.494,0.401c-0.193,0.147-0.244,0.44-0.244,0.44c-0.166,0.227,0.676-0.321,0.968-0.494
			c0.293-0.174,0.219-0.375,0.243-0.654c0.024-0.281,0.104-0.321,0.228-0.441c0.128-0.121,0.027-0.361-0.034-0.533
			C28.36,6.892,28.258,7.12,28.182,7.291z"/>
	</g>
	<g>
		<path fill="#023894" d="M25.57,13.355c0.088-0.066,0.023-0.215,0.164-0.188c0.141,0.025,0.268,0.107,0.436,0.014
			c0.164-0.096,0.306-0.055,0.279-0.215c-0.024-0.158,0-0.373-0.038-0.506c-0.038-0.135-0.268-0.176-0.433-0.025
			c-0.165,0.146-0.396,0.375-0.396,0.293c0-0.08,0.103-0.293,0.051-0.428c-0.051-0.135,0.024-0.254-0.229-0.146
			c-0.256,0.107-0.396,0.082-0.485,0.229c-0.089,0.148-0.189,0.4-0.345,0.24c-0.152-0.16-0.599-0.494-0.599-0.494
			c-0.036-0.041-0.547-0.455-0.368-0.172c0.179,0.279,0.446,0.762,0.573,0.934c0.125,0.174,0.268,0.373,0.42,0.281
			c0.151-0.096,0.18-0.121,0.382,0C25.187,13.287,25.481,13.422,25.57,13.355z"/>
	</g>
	<g>
		<path fill="#023894" d="M28.693,12.98c-0.244-0.107-0.143-0.201-0.437-0.254c-0.293-0.053-0.533,0-0.612-0.053c-0.076-0.053-0.457-0.188-0.406,0
			c0.052,0.188,0.396,0.238,0.482,0.293c0.092,0.055-0.126,0.174,0.038,0.268c0.165,0.092,0.28,0.268,0.497,0.215
			c0.217-0.055,0.292,0.066,0.471,0.092c0.18,0.027,0.356-0.025,0.281-0.107c-0.077-0.08-0.127-0.188-0.112-0.281
			C28.907,13.061,28.932,13.086,28.693,12.98z"/>
	</g>
	<g>
		<path fill="#023894" d="M28.564,14.168c-0.088-0.268-0.307-0.76-0.354-0.52c-0.052,0.238-0.396,0.412-0.523,0.396
			c-0.117-0.012-0.053-0.133-0.053-0.238c0-0.107-0.064-0.215-0.355-0.135c-0.294,0.08-0.355,0.361-0.435,0.336
			c-0.074-0.027-0.28-0.082-0.405,0.066c-0.129,0.146-0.244,0.428-0.396,0.48c-0.155,0.055-0.665,0.119-0.665,0.334
			s0.129,0.533,0.115,0.707s-0.245,0.572,0.063,0.695c0.179,0.068,0.306,0.078,0.512-0.027c0.202-0.105,1.082-0.389,1.196-0.295
			s0.302,0.313,0.383,0.359c0.163,0.098,0.206,0.32,0.423,0.375c0.214,0.053,0.381,0.08,0.469,0.08c0.091,0,0.407-0.107,0.483-0.295
			c0.077-0.188,0.218-0.627,0.281-0.84c0.066-0.215,0.127-0.453-0.063-0.645C29.049,14.822,28.653,14.438,28.564,14.168z"/>
	</g>
</g>
</svg>
